<svg width="24" height="32" viewBox="0 0 24 32" fill="none" xmlns="http://www.w3.org/2000/svg">
<path d="M10.369 15.9496L18.5296 7.88571C18.959 7.45891 19.2 6.88156 19.2 6.27976C19.2 5.67796 18.959 5.10061 18.5296 4.67381C18.3153 4.4603 18.0604 4.29084 17.7795 4.17519C17.4985 4.05954 17.1972 4 16.8929 4C16.5886 4 16.2873 4.05954 16.0064 4.17519C15.7254 4.29084 15.4705 4.4603 15.2562 4.67381L5.48188 14.3323C5.26581 14.5441 5.09431 14.796 4.97728 15.0736C4.86024 15.3512 4.79999 15.6489 4.79999 15.9496C4.79999 16.2504 4.86024 16.5481 4.97728 16.8257C5.09431 17.1033 5.26581 17.3552 5.48188 17.567L15.2562 27.3394C15.4716 27.5505 15.727 27.7175 16.0079 27.8309C16.2888 27.9442 16.5895 28.0017 16.8929 28C17.1963 28.0017 17.497 27.9442 17.7779 27.8309C18.0588 27.7175 18.3142 27.5505 18.5296 27.3394C18.959 26.9126 19.2 26.3352 19.2 25.7334C19.2 25.1316 18.959 24.5543 18.5296 24.1275L10.369 15.9496Z" fill="#1E1E2F"/>
</svg>
