<svg width="32" height="32" viewBox="0 0 32 32" fill="none" xmlns="http://www.w3.org/2000/svg">
<path d="M16 8.5C11.8645 8.5 8.5 11.8645 8.5 16C8.5 20.1355 11.8645 23.5 16 23.5C20.1355 23.5 23.5 20.1355 23.5 16C23.5 11.8645 20.1355 8.5 16 8.5ZM16 22.5C14.1625 22.5 12.504 21.73 11.3205 20.5H20.6795C19.496 21.73 17.8375 22.5 16 22.5ZM15.2515 15.2905C14.781 15.0165 14.5 14.534 14.5 14V13C14.5 12.581 14.6775 12.1775 14.987 11.894C15.3 11.6065 15.706 11.4685 16.136 11.506C16.9005 11.5725 17.5 12.274 17.5 13.104V14C17.5 14.534 17.219 15.0165 16.7485 15.2905L16.5 15.435V16.877L18.92 17.5685C19.556 17.75 20 18.339 20 19V19.5H12V19C12 18.339 12.444 17.75 13.08 17.5685L15.5 16.877V15.435L15.2515 15.2905ZM21 20.1475V19C21 17.895 20.258 16.9105 19.195 16.607L17.5 16.123V15.99C18.123 15.5205 18.5 14.782 18.5 14.0005V13.1045C18.5 11.7605 17.4995 10.6215 16.222 10.5105C15.5215 10.448 14.8255 10.6855 14.311 11.1575C13.7955 11.6295 13.5 12.3015 13.5 13V14C13.5 14.7815 13.877 15.5205 14.5 15.9895V16.1225L12.805 16.607C11.742 16.9105 11 17.895 11 19V20.1475C10.064 19.021 9.5 17.5755 9.5 16C9.5 12.416 12.416 9.5 16 9.5C19.584 9.5 22.5 12.416 22.5 16C22.5 17.5755 21.936 19.021 21 20.1475Z" fill="white"/>
<path d="M27 3.5H22.408C22.201 2.9195 21.651 2.5 21 2.5H19.3085C18.6605 1.2645 17.3995 0.5 16 0.5C14.6005 0.5 13.3395 1.264 12.6915 2.5H11C10.349 2.5 9.799 2.9195 9.592 3.5H5C4.173 3.5 3.5 4.173 3.5 5V30C3.5 30.827 4.173 31.5 5 31.5H27C27.827 31.5 28.5 30.827 28.5 30V5C28.5 4.173 27.827 3.5 27 3.5ZM25.5 24.5H21.5V28.5H6.5V6.5H9.5V7.5H22.5V6.5H25.5V24.5ZM24.793 25.5L22.5 27.793V25.5H24.793ZM10.5 4C10.5 3.7245 10.7245 3.5 11 3.5H13.309L13.5525 3.0125C14.0195 2.0795 14.957 1.5 16 1.5C17.043 1.5 17.9805 2.0795 18.4475 3.012L18.691 3.5H21C21.2755 3.5 21.5 3.7245 21.5 4V6.5H10.5V4ZM27.5 30C27.5 30.2755 27.2755 30.5 27 30.5H5C4.7245 30.5 4.5 30.2755 4.5 30V5C4.5 4.7245 4.7245 4.5 5 4.5H9.5V5.5H5.5V29.5H22.207L26.5 25.207V5.5H22.5V4.5H27C27.2755 4.5 27.5 4.7245 27.5 5V30Z" fill="white"/>
<path d="M16 2.5C15.173 2.5 14.5 3.173 14.5 4C14.5 4.827 15.173 5.5 16 5.5C16.827 5.5 17.5 4.827 17.5 4C17.5 3.173 16.827 2.5 16 2.5ZM16 4.5C15.7245 4.5 15.5 4.2755 15.5 4C15.5 3.7245 15.7245 3.5 16 3.5C16.2755 3.5 16.5 3.7245 16.5 4C16.5 4.2755 16.2755 4.5 16 4.5Z" fill="white"/>
<path d="M13 4.5H12V5.5H13V4.5Z" fill="white"/>
<path d="M20 4.5H19V5.5H20V4.5Z" fill="white"/>
</svg>
