<svg width="450" height="71" viewBox="0 0 450 71" fill="none" xmlns="http://www.w3.org/2000/svg">
<g clip-path="url(#clip0_252_2652)">
<rect width="450" height="71" rx="10" fill="#1E1E2F"/>
<path d="M176.622 31.5795H172.372C172.251 30.8826 172.027 30.2652 171.702 29.7273C171.376 29.1818 170.971 28.7197 170.486 28.3409C170.001 27.9621 169.448 27.678 168.827 27.4886C168.213 27.2917 167.55 27.1932 166.838 27.1932C165.573 27.1932 164.452 27.5114 163.474 28.1477C162.497 28.7765 161.732 29.7008 161.179 30.9205C160.626 32.1326 160.349 33.6136 160.349 35.3636C160.349 37.1439 160.626 38.6439 161.179 39.8636C161.74 41.0758 162.505 41.9924 163.474 42.6136C164.452 43.2273 165.569 43.5341 166.827 43.5341C167.524 43.5341 168.175 43.4432 168.781 43.2614C169.395 43.072 169.944 42.7955 170.429 42.4318C170.921 42.0682 171.334 41.6212 171.668 41.0909C172.009 40.5606 172.243 39.9545 172.372 39.2727L176.622 39.2955C176.463 40.4015 176.118 41.4394 175.588 42.4091C175.065 43.3788 174.38 44.2348 173.531 44.9773C172.683 45.7121 171.69 46.2879 170.554 46.7045C169.418 47.1136 168.156 47.3182 166.77 47.3182C164.724 47.3182 162.899 46.8447 161.293 45.8977C159.687 44.9508 158.421 43.5833 157.497 41.7955C156.573 40.0076 156.111 37.8636 156.111 35.3636C156.111 32.8561 156.577 30.7121 157.509 28.9318C158.44 27.1439 159.709 25.7765 161.315 24.8295C162.921 23.8826 164.74 23.4091 166.77 23.4091C168.065 23.4091 169.27 23.5909 170.384 23.9545C171.497 24.3182 172.49 24.8523 173.361 25.5568C174.232 26.2538 174.948 27.1098 175.509 28.125C176.077 29.1326 176.448 30.2841 176.622 31.5795ZM187.915 47.3409C186.21 47.3409 184.733 46.9659 183.483 46.2159C182.233 45.4659 181.263 44.4167 180.574 43.0682C179.892 41.7197 179.551 40.1439 179.551 38.3409C179.551 36.5379 179.892 34.9583 180.574 33.6023C181.263 32.2462 182.233 31.1932 183.483 30.4432C184.733 29.6932 186.21 29.3182 187.915 29.3182C189.619 29.3182 191.097 29.6932 192.347 30.4432C193.597 31.1932 194.563 32.2462 195.244 33.6023C195.934 34.9583 196.278 36.5379 196.278 38.3409C196.278 40.1439 195.934 41.7197 195.244 43.0682C194.563 44.4167 193.597 45.4659 192.347 46.2159C191.097 46.9659 189.619 47.3409 187.915 47.3409ZM187.938 44.0455C188.862 44.0455 189.634 43.7917 190.256 43.2841C190.877 42.7689 191.339 42.0795 191.642 41.2159C191.953 40.3523 192.108 39.3902 192.108 38.3295C192.108 37.2614 191.953 36.2955 191.642 35.4318C191.339 34.5606 190.877 33.8674 190.256 33.3523C189.634 32.8371 188.862 32.5795 187.938 32.5795C186.991 32.5795 186.203 32.8371 185.574 33.3523C184.953 33.8674 184.487 34.5606 184.176 35.4318C183.873 36.2955 183.722 37.2614 183.722 38.3295C183.722 39.3902 183.873 40.3523 184.176 41.2159C184.487 42.0795 184.953 42.7689 185.574 43.2841C186.203 43.7917 186.991 44.0455 187.938 44.0455ZM203.884 36.7727V47H199.77V29.5455H203.702V32.5114H203.906C204.308 31.5341 204.948 30.7576 205.827 30.1818C206.713 29.6061 207.808 29.3182 209.111 29.3182C210.315 29.3182 211.365 29.5758 212.259 30.0909C213.16 30.6061 213.857 31.3523 214.349 32.3295C214.849 33.3068 215.096 34.4924 215.088 35.8864V47H210.974V36.5227C210.974 35.3561 210.671 34.4432 210.065 33.7841C209.467 33.125 208.637 32.7955 207.577 32.7955C206.857 32.7955 206.217 32.9545 205.656 33.2727C205.103 33.5833 204.668 34.0341 204.349 34.625C204.039 35.2159 203.884 35.9318 203.884 36.7727ZM227.986 29.5455V32.7273H217.952V29.5455H227.986ZM220.429 25.3636H224.543V41.75C224.543 42.303 224.626 42.7273 224.793 43.0227C224.967 43.3106 225.194 43.5076 225.474 43.6136C225.755 43.7197 226.065 43.7727 226.406 43.7727C226.664 43.7727 226.899 43.7538 227.111 43.7159C227.33 43.678 227.497 43.6439 227.611 43.6136L228.304 46.8295C228.084 46.9053 227.77 46.9886 227.361 47.0795C226.959 47.1705 226.467 47.2235 225.884 47.2386C224.853 47.2689 223.925 47.1136 223.099 46.7727C222.274 46.4242 221.618 45.8864 221.134 45.1591C220.656 44.4318 220.421 43.5227 220.429 42.4318V25.3636ZM231.426 47V29.5455H235.54V47H231.426ZM233.494 27.0682C232.843 27.0682 232.282 26.8523 231.812 26.4205C231.343 25.9811 231.108 25.4545 231.108 24.8409C231.108 24.2197 231.343 23.6932 231.812 23.2614C232.282 22.822 232.843 22.6023 233.494 22.6023C234.153 22.6023 234.714 22.822 235.176 23.2614C235.646 23.6932 235.881 24.2197 235.881 24.8409C235.881 25.4545 235.646 25.9811 235.176 26.4205C234.714 26.8523 234.153 27.0682 233.494 27.0682ZM243.884 36.7727V47H239.77V29.5455H243.702V32.5114H243.906C244.308 31.5341 244.948 30.7576 245.827 30.1818C246.713 29.6061 247.808 29.3182 249.111 29.3182C250.315 29.3182 251.365 29.5758 252.259 30.0909C253.16 30.6061 253.857 31.3523 254.349 32.3295C254.849 33.3068 255.096 34.4924 255.088 35.8864V47H250.974V36.5227C250.974 35.3561 250.671 34.4432 250.065 33.7841C249.467 33.125 248.637 32.7955 247.577 32.7955C246.857 32.7955 246.217 32.9545 245.656 33.2727C245.103 33.5833 244.668 34.0341 244.349 34.625C244.039 35.2159 243.884 35.9318 243.884 36.7727ZM270.395 39.6591V29.5455H274.509V47H270.52V43.8977H270.338C269.944 44.875 269.296 45.6742 268.395 46.2955C267.501 46.9167 266.399 47.2273 265.088 47.2273C263.944 47.2273 262.933 46.9735 262.054 46.4659C261.183 45.9508 260.501 45.2045 260.009 44.2273C259.516 43.2424 259.27 42.053 259.27 40.6591V29.5455H263.384V40.0227C263.384 41.1288 263.687 42.0076 264.293 42.6591C264.899 43.3106 265.694 43.6364 266.679 43.6364C267.285 43.6364 267.872 43.4886 268.44 43.1932C269.009 42.8977 269.474 42.4583 269.838 41.875C270.209 41.2841 270.395 40.5455 270.395 39.6591ZM286.466 47.3409C284.716 47.3409 283.205 46.9773 281.932 46.25C280.667 45.5152 279.693 44.4773 279.011 43.1364C278.33 41.7879 277.989 40.2008 277.989 38.375C277.989 36.5795 278.33 35.0038 279.011 33.6477C279.701 32.2841 280.663 31.2235 281.898 30.4659C283.133 29.7008 284.583 29.3182 286.25 29.3182C287.326 29.3182 288.341 29.4924 289.295 29.8409C290.258 30.1818 291.106 30.7121 291.841 31.4318C292.583 32.1515 293.167 33.0682 293.591 34.1818C294.015 35.2879 294.227 36.6061 294.227 38.1364V39.3977H279.92V36.625H290.284C290.277 35.8371 290.106 35.1364 289.773 34.5227C289.439 33.9015 288.973 33.4129 288.375 33.0568C287.784 32.7008 287.095 32.5227 286.307 32.5227C285.466 32.5227 284.727 32.7273 284.091 33.1364C283.455 33.5379 282.958 34.0682 282.602 34.7273C282.254 35.3788 282.076 36.0947 282.068 36.875V39.2955C282.068 40.3106 282.254 41.1818 282.625 41.9091C282.996 42.6288 283.515 43.1818 284.182 43.5682C284.848 43.947 285.629 44.1364 286.523 44.1364C287.121 44.1364 287.663 44.053 288.148 43.8864C288.633 43.7121 289.053 43.4583 289.409 43.125C289.765 42.7917 290.034 42.3788 290.216 41.8864L294.057 42.3182C293.814 43.3333 293.352 44.2197 292.67 44.9773C291.996 45.7273 291.133 46.3106 290.08 46.7273C289.027 47.1364 287.822 47.3409 286.466 47.3409Z" fill="white"/>
<rect width="100" height="74.2574" transform="translate(-1.83002 -19.4585) rotate(39.5129)" fill="white"/>
<path d="M5.159 71.1577H54.89" stroke="#1E1E2F" stroke-width="2"/>
<rect width="100" height="100" transform="translate(-30.3748 -43) rotate(39.5129)" fill="#F58220"/>
</g>
<defs>
<clipPath id="clip0_252_2652">
<rect width="450" height="71" rx="10" fill="white"/>
</clipPath>
</defs>
</svg>
