<svg width="16" height="24" viewBox="0 0 16 24" fill="none" xmlns="http://www.w3.org/2000/svg">
<path d="M6.12309 0V2.59056C5.07483 2.59056 0.359106 3.92599 0.359106 8.20758C0.359106 12.0165 3.76208 13.0534 6.1206 13.3937L6.12309 17.698C4.40097 17.2064 4.08801 15.8814 3.84888 14.7861H0.0676689C0.301696 19.0698 4.06404 21.062 6.12309 21.3646V24H9.71749V21.4045C12.5627 21.2532 15.9323 18.7962 15.9323 15.4288C15.9323 11.5719 12.5759 10.4772 9.71749 10.1829V6.23726C10.8422 6.31697 11.7198 7.4329 11.8148 8.56876H15.5587C15.5587 4.74271 12.0777 2.73005 9.68012 2.59056V0H6.12309ZM6.14302 6.27462V9.5452C3.60922 9.50535 3.55996 6.72841 6.14302 6.27462ZM9.75983 14.0089C12.8954 14.0886 13.2426 17.2176 9.75485 17.7179L9.75983 14.0089Z" fill="white"/>
</svg>
