<svg width="24" height="24" viewBox="0 0 24 24" fill="none" xmlns="http://www.w3.org/2000/svg">
<path d="M4.5 7H6.16667H19.5" stroke="#D01025" stroke-width="2" stroke-linecap="round" stroke-linejoin="round"/>
<path d="M17.8346 7.0013V18.668C17.8346 19.11 17.659 19.5339 17.3465 19.8465C17.0339 20.159 16.61 20.3346 16.168 20.3346H7.83464C7.39261 20.3346 6.96868 20.159 6.65612 19.8465C6.34356 19.5339 6.16797 19.11 6.16797 18.668V7.0013M8.66797 7.0013V5.33464C8.66797 4.89261 8.84356 4.46868 9.15612 4.15612C9.46869 3.84356 9.89261 3.66797 10.3346 3.66797H13.668C14.11 3.66797 14.5339 3.84356 14.8465 4.15612C15.159 4.46868 15.3346 4.89261 15.3346 5.33464V7.0013" stroke="#D01025" stroke-width="2" stroke-linecap="round" stroke-linejoin="round"/>
<path d="M10.332 11.168V16.168" stroke="#D01025" stroke-width="2" stroke-linecap="round" stroke-linejoin="round"/>
<path d="M13.668 11.168V16.168" stroke="#D01025" stroke-width="2" stroke-linecap="round" stroke-linejoin="round"/>
</svg>
