<svg width="32" height="32" viewBox="0 0 32 32" fill="none" xmlns="http://www.w3.org/2000/svg">
<g clip-path="url(#clip0_122_2105)">
<path d="M7.11108 7.11108H19.5555V8.88886H7.11108V7.11108ZM7.11108 10.6666H19.5555V12.4444H7.11108V10.6666ZM16 14.2222H19.5555V16H16V14.2222ZM16 17.7777H19.5555V19.5555H16V17.7777ZM16 21.3333H19.5555V23.1111H16V21.3333ZM21.3333 7.11108H24.8889V8.88886H21.3333V7.11108ZM21.3333 10.6666H24.8889V12.4444H21.3333V10.6666ZM21.3333 14.2222H24.8889V16H21.3333V14.2222ZM21.3333 17.7777H24.8889V19.5555H21.3333V17.7777ZM21.3333 21.3333H24.8889V23.1111H21.3333V21.3333ZM8.88886 14.2222H12.4444V16H14.2222V17.7777H8.88886V19.5555H12.4444C12.9159 19.5555 13.3681 19.7428 13.7015 20.0762C14.0349 20.4096 14.2222 20.8618 14.2222 21.3333V23.1111C14.2222 23.5826 14.0349 24.0348 13.7015 24.3682C13.3681 24.7016 12.9159 24.8889 12.4444 24.8889V26.6666H8.88886V24.8889H7.11108V23.1111H12.4444V21.3333H8.88886C8.41737 21.3333 7.96518 21.146 7.63178 20.8126C7.29839 20.4792 7.11108 20.027 7.11108 19.5555V17.7777C7.11108 17.3063 7.29839 16.8541 7.63178 16.5207C7.96518 16.1873 8.41737 16 8.88886 16V14.2222Z" fill="white"/>
<path opacity="0.4" d="M19.5556 7.11108H21.3334V8.88886H19.5556V7.11108ZM19.5556 10.6666H21.3334V12.4444H19.5556V10.6666ZM19.5556 14.2222H21.3334V16H19.5556V14.2222ZM19.5556 17.7778H21.3334V19.5555H19.5556V17.7778ZM19.5556 21.3333H21.3334V23.1111H19.5556V21.3333ZM8.88892 17.7778H12.4445V19.5555H8.88892V17.7778ZM8.88892 21.3333H12.4445V23.1111H8.88892V21.3333Z" fill="white"/>
</g>
<defs>
<clipPath id="clip0_122_2105">
<rect width="32" height="32" fill="white"/>
</clipPath>
</defs>
</svg>
