<svg width="44" height="45" viewBox="0 0 44 45" fill="none" xmlns="http://www.w3.org/2000/svg">
<path d="M22.768 42.6555H21.3685L21.4453 38.3589H22.6741L22.768 42.6555ZM22.5845 34.0667H21.5221L21.5989 29.7701H22.4907L22.5845 34.0667Z" fill="white"/>
<path d="M33.6395 27.5387C34.0022 27.2456 34.2947 26.8751 34.4955 26.4543C34.6963 26.0334 34.8004 25.573 34.8 25.1067V13.0747H36.5067C36.7782 13.0747 37.0387 12.9668 37.2307 12.7747C37.4228 12.5827 37.5307 12.3222 37.5307 12.0507V11.4533H37.8549C38.0518 11.4533 38.2407 11.3751 38.3799 11.2359C38.5191 11.0967 38.5973 10.9078 38.5973 10.7109V7.25493C38.5973 7.05803 38.5191 6.8692 38.3799 6.72998C38.2407 6.59075 38.0518 6.51253 37.8549 6.51253H37.5307V5.1728C37.5307 4.90122 37.4228 4.64076 37.2307 4.44872C37.0387 4.25668 36.7782 4.1488 36.5067 4.1488H34.8V3.77333C34.8 2.94161 34.4696 2.14396 33.8815 1.55584C33.2934 0.967731 32.4957 0.637332 31.664 0.637332H12.3488C11.9359 0.635647 11.5267 0.715518 11.1448 0.872362C10.7628 1.02921 10.4156 1.25993 10.123 1.55131C9.83046 1.84268 9.59832 2.18896 9.43992 2.57027C9.28152 2.95159 9.19999 3.36043 9.19999 3.77333V4.14453H7.12639C6.85481 4.14453 6.59435 4.25242 6.40231 4.44445C6.21027 4.63649 6.10239 4.89695 6.10239 5.16853V6.48693H5.78666C5.68916 6.48693 5.59262 6.50613 5.50255 6.54344C5.41248 6.58075 5.33064 6.63544 5.2617 6.70438C5.19276 6.77331 5.13808 6.85516 5.10077 6.94523C5.06346 7.0353 5.04425 7.13184 5.04425 7.22933V10.6853C5.04082 10.785 5.05748 10.8843 5.09325 10.9773C5.12901 11.0704 5.18315 11.1552 5.25244 11.2269C5.32172 11.2986 5.40473 11.3556 5.49651 11.3945C5.58829 11.4334 5.68697 11.4534 5.78666 11.4533H6.11092V12.0507C6.11092 12.3222 6.21881 12.5827 6.41085 12.7747C6.60288 12.9668 6.86334 13.0747 7.13492 13.0747H9.19999V25.1067C9.20085 25.6092 9.32265 26.1042 9.55509 26.5498C9.78753 26.9953 10.1238 27.3784 10.5355 27.6667L0.722122 42.7664L1.09332 42.9755C1.70772 43.3424 16.24 51.9739 21.9573 51.9739H22C27.7301 51.9184 42.3819 42.8816 43.0005 42.4976L43.3248 42.2971L33.6395 27.5387ZM34.8 4.70773H36.5067C36.63 4.70773 36.7483 4.75673 36.8355 4.84395C36.9227 4.93116 36.9717 5.04945 36.9717 5.1728V6.4912H36.6475C36.4506 6.4912 36.2617 6.56942 36.1225 6.70864C35.9833 6.84787 35.9051 7.0367 35.9051 7.2336V10.6896C35.9022 10.7885 35.9192 10.887 35.9549 10.9793C35.9907 11.0715 36.0446 11.1557 36.1133 11.2269C36.1821 11.298 36.2644 11.3547 36.3554 11.3936C36.4464 11.4325 36.5442 11.4528 36.6432 11.4533H36.9675V12.0507C36.9675 12.1733 36.919 12.2909 36.8328 12.378C36.7465 12.4651 36.6293 12.5146 36.5067 12.5157H34.8V4.70773ZM9.19999 12.5157H7.12639C7.06532 12.5157 7.00484 12.5037 6.94841 12.4803C6.89199 12.457 6.84072 12.4227 6.79754 12.3795C6.75435 12.3363 6.7201 12.2851 6.69672 12.2286C6.67335 12.1722 6.66132 12.1117 6.66132 12.0507V11.4533H6.98559C7.18249 11.4533 7.37132 11.3751 7.51055 11.2359C7.64977 11.0967 7.72799 10.9078 7.72799 10.7109V7.25493C7.72799 7.05803 7.64977 6.8692 7.51055 6.72998C7.37132 6.59075 7.18249 6.51253 6.98559 6.51253H6.66132V5.1728C6.66132 5.11172 6.67335 5.05125 6.69672 4.99483C6.7201 4.9384 6.75435 4.88713 6.79754 4.84395C6.84072 4.80076 6.89199 4.7665 6.94841 4.74313C7.00484 4.71976 7.06532 4.70773 7.12639 4.70773H9.19999V12.5157ZM22 51.2315L21.9531 51.6027V51.2315C16.9013 51.2315 4.03306 43.8416 1.80159 42.536L10.9323 28.456V30.0091C10.9323 30.206 11.0105 30.3948 11.1497 30.534C11.2889 30.6733 11.4778 30.7515 11.6747 30.7515H13.1595C13.3519 30.7493 13.5361 30.6725 13.673 30.5371C13.8099 30.4018 13.8889 30.2186 13.8933 30.0261V28.2512H30.3456V30.0261C30.3456 30.223 30.4238 30.4119 30.563 30.5511C30.7023 30.6903 30.8911 30.7685 31.088 30.7685H32.5771C32.774 30.7685 32.9628 30.6903 33.102 30.5511C33.2412 30.4119 33.3195 30.223 33.3195 30.0261V28.4091L42.2795 42.0624C40.0565 43.4192 27.0603 51.1803 22 51.2315Z" fill="white"/>
<path d="M31.0539 3.0736H12.9461C12.1096 3.0736 11.4315 3.75174 11.4315 4.58826V11.7563C11.4315 12.5928 12.1096 13.2709 12.9461 13.2709H31.0539C31.8904 13.2709 32.5685 12.5928 32.5685 11.7563V4.58826C32.5685 3.75174 31.8904 3.0736 31.0539 3.0736Z" fill="#F58220"/>
<path d="M12.7371 26.5061C13.7338 26.5061 14.5419 25.6981 14.5419 24.7013C14.5419 23.7046 13.7338 22.8965 12.7371 22.8965C11.7403 22.8965 10.9323 23.7046 10.9323 24.7013C10.9323 25.6981 11.7403 26.5061 12.7371 26.5061Z" fill="#F58220"/>
<path d="M31.1776 26.5061C32.1744 26.5061 32.9824 25.6981 32.9824 24.7013C32.9824 23.7046 32.1744 22.8965 31.1776 22.8965C30.1808 22.8965 29.3728 23.7046 29.3728 24.7013C29.3728 25.6981 30.1808 26.5061 31.1776 26.5061Z" fill="#F58220"/>
<path d="M30.0085 5.57386C29.9831 5.57808 29.9571 5.57808 29.9317 5.57386L21.9232 2.728C21.8802 2.6984 21.8483 2.65532 21.8325 2.60556C21.8167 2.5558 21.818 2.5022 21.8361 2.45325C21.8542 2.40429 21.8882 2.36277 21.9325 2.33526C21.9769 2.30774 22.0291 2.2958 22.0811 2.30133L30.1067 5.11733C30.162 5.1352 30.2087 5.17298 30.2378 5.22336C30.2669 5.27373 30.2762 5.3331 30.264 5.38996C30.2518 5.44682 30.2189 5.49711 30.1717 5.53109C30.1245 5.56507 30.0663 5.58031 30.0085 5.57386Z" fill="white"/>
</svg>
