<svg width="24" height="24" viewBox="0 0 24 24" fill="none" xmlns="http://www.w3.org/2000/svg">
<path d="M14.9988 2.50233C12.7838 4.60792 10.5691 6.71352 8.35433 8.81939L14.6382 8.79019L17.9675 5.625C16.978 4.58411 15.9884 3.54322 14.9988 2.50233ZM19.8019 14.1486V17.5065H22.5285V14.1486H19.8019ZM18.6323 17.5065V14.1486H17.205V17.5065H18.6323ZM17.1463 12.9787H19.2171H20.2384V9.98926C15.098 9.98926 9.94742 9.98926 4.8178 9.98926C4.04847 9.98926 4.04847 8.81939 4.8178 8.81939H6.66062L10.156 5.49631H3.27347C2.28361 5.49631 1.47148 6.30844 1.47148 7.29831V19.9341C1.47148 20.924 2.28361 21.7358 3.27347 21.7358H18.4364C19.4263 21.7358 20.2384 20.924 20.2384 19.9341V18.6764H17.1463C16.5349 18.6764 16.0351 18.1755 16.0351 17.5652V14.0899C16.0351 13.4787 16.5357 12.9787 17.1463 12.9787ZM21.408 12.9787H22.5869C23.1995 12.9787 23.6984 13.4776 23.6984 14.0899V17.5652C23.6984 18.1775 23.1995 18.6764 22.5869 18.6764H21.408V19.9341C21.408 21.5697 20.072 22.9057 18.4364 22.9057H3.27347C1.63787 22.9057 0.301891 21.5697 0.301891 19.9341V7.29831C0.301891 5.6627 1.63787 4.32673 3.27347 4.32673H11.3863L14.6175 1.2548C14.8508 1.03256 15.2202 1.04191 15.4424 1.27521L18.3434 4.32673H18.4364C20.072 4.32673 21.408 5.6627 21.408 7.29831V9.40418V12.9787ZM16.301 8.81939H20.2384V7.29831C20.2384 6.66533 19.9028 6.08309 19.365 5.75653C19.3429 5.8719 19.2859 5.98132 19.1947 6.06835L16.301 8.81939Z" fill="white"/>
</svg>
