<svg width="450" height="71" viewBox="0 0 450 71" fill="none" xmlns="http://www.w3.org/2000/svg">
<g clip-path="url(#clip0_151_7895)">
<rect width="450" height="71" rx="8" fill="#1E1E2F"/>
<path d="M195.45 47H187.916V23.7273H195.689C197.969 23.7273 199.928 24.1932 201.564 25.125C203.2 26.0492 204.454 27.3788 205.325 29.1136C206.204 30.8409 206.643 32.9129 206.643 35.3295C206.643 37.7538 206.2 39.8371 205.314 41.5795C204.435 43.322 203.162 44.6629 201.496 45.6023C199.829 46.5341 197.814 47 195.45 47ZM191.428 43.9318H195.257C197.03 43.9318 198.503 43.5985 199.678 42.9318C200.852 42.2576 201.731 41.2841 202.314 40.0114C202.897 38.7311 203.189 37.1705 203.189 35.3295C203.189 33.5038 202.897 31.9545 202.314 30.6818C201.738 29.4091 200.878 28.4432 199.734 27.7841C198.59 27.125 197.17 26.7955 195.473 26.7955H191.428V43.9318ZM218.089 47.3523C216.453 47.3523 215.025 46.9773 213.805 46.2273C212.586 45.4773 211.639 44.428 210.964 43.0795C210.29 41.7311 209.953 40.1553 209.953 38.3523C209.953 36.5417 210.29 34.9583 210.964 33.6023C211.639 32.2462 212.586 31.1932 213.805 30.4432C215.025 29.6932 216.453 29.3182 218.089 29.3182C219.726 29.3182 221.154 29.6932 222.374 30.4432C223.593 31.1932 224.54 32.2462 225.214 33.6023C225.889 34.9583 226.226 36.5417 226.226 38.3523C226.226 40.1553 225.889 41.7311 225.214 43.0795C224.54 44.428 223.593 45.4773 222.374 46.2273C221.154 46.9773 219.726 47.3523 218.089 47.3523ZM218.101 44.5C219.161 44.5 220.04 44.2197 220.737 43.6591C221.434 43.0985 221.949 42.3523 222.283 41.4205C222.624 40.4886 222.794 39.4621 222.794 38.3409C222.794 37.2273 222.624 36.2045 222.283 35.2727C221.949 34.3333 221.434 33.5795 220.737 33.0114C220.04 32.4432 219.161 32.1591 218.101 32.1591C217.033 32.1591 216.146 32.4432 215.442 33.0114C214.745 33.5795 214.226 34.3333 213.885 35.2727C213.552 36.2045 213.385 37.2273 213.385 38.3409C213.385 39.4621 213.552 40.4886 213.885 41.4205C214.226 42.3523 214.745 43.0985 215.442 43.6591C216.146 44.2197 217.033 44.5 218.101 44.5ZM233.416 36.6364V47H230.018V29.5455H233.28V32.3864H233.496C233.897 31.4621 234.526 30.7197 235.382 30.1591C236.246 29.5985 237.333 29.3182 238.643 29.3182C239.833 29.3182 240.875 29.5682 241.768 30.0682C242.662 30.5606 243.356 31.2955 243.848 32.2727C244.34 33.25 244.587 34.4583 244.587 35.8977V47H241.189V36.3068C241.189 35.0417 240.859 34.053 240.2 33.3409C239.541 32.6212 238.636 32.2614 237.484 32.2614C236.696 32.2614 235.996 32.4318 235.382 32.7727C234.776 33.1136 234.295 33.6136 233.939 34.2727C233.59 34.9242 233.416 35.7121 233.416 36.6364ZM256.666 47.3523C254.946 47.3523 253.465 46.9848 252.223 46.25C250.988 45.5076 250.034 44.4659 249.359 43.125C248.693 41.7765 248.359 40.197 248.359 38.3864C248.359 36.5985 248.693 35.0227 249.359 33.6591C250.034 32.2955 250.973 31.2311 252.178 30.4659C253.39 29.7008 254.806 29.3182 256.428 29.3182C257.412 29.3182 258.367 29.4811 259.291 29.8068C260.215 30.1326 261.045 30.6439 261.78 31.3409C262.515 32.0379 263.094 32.9432 263.518 34.0568C263.943 35.1629 264.155 36.5076 264.155 38.0909V39.2955H250.28V36.75H260.825C260.825 35.8561 260.643 35.0644 260.28 34.375C259.916 33.678 259.405 33.1288 258.746 32.7273C258.094 32.3258 257.329 32.125 256.45 32.125C255.496 32.125 254.662 32.3598 253.95 32.8295C253.246 33.2917 252.7 33.8977 252.314 34.6477C251.935 35.3902 251.746 36.197 251.746 37.0682V39.0568C251.746 40.2235 251.95 41.2159 252.359 42.0341C252.776 42.8523 253.356 43.4773 254.098 43.9091C254.84 44.3333 255.708 44.5455 256.7 44.5455C257.344 44.5455 257.931 44.4545 258.462 44.2727C258.992 44.0833 259.45 43.803 259.837 43.4318C260.223 43.0606 260.518 42.6023 260.723 42.0568L263.939 42.6364C263.681 43.5833 263.219 44.4129 262.553 45.125C261.893 45.8295 261.064 46.3788 260.064 46.7727C259.071 47.1591 257.939 47.3523 256.666 47.3523Z" fill="white"/>
<rect width="100" height="74.2574" transform="translate(-1.83008 -19.4587) rotate(39.5129)" fill="white"/>
<path d="M5.15894 71.1572H54.8899" stroke="#1E1E2F" stroke-width="2"/>
<rect width="100" height="100" transform="translate(-30.3749 -43) rotate(39.5129)" fill="#F58220"/>
</g>
<defs>
<clipPath id="clip0_151_7895">
<rect width="450" height="71" rx="8" fill="white"/>
</clipPath>
</defs>
</svg>
