<svg width="52" height="24" viewBox="0 0 52 24" fill="none" xmlns="http://www.w3.org/2000/svg">
<g clip-path="url(#clip0_122_1911)">
<path d="M39.4685 13.5194L34.4286 8.41897C34.1618 8.15062 33.801 8 33.4249 8C33.0487 8 32.6879 8.15062 32.4211 8.41897C32.2877 8.55291 32.1818 8.71226 32.1095 8.88783C32.0372 9.06341 32 9.25173 32 9.44193C32 9.63213 32.0372 9.82045 32.1095 9.99602C32.1818 10.1716 32.2877 10.3309 32.4211 10.4649L38.4577 16.5738C38.59 16.7089 38.7475 16.816 38.921 16.8892C39.0945 16.9623 39.2806 17 39.4685 17C39.6565 17 39.8426 16.9623 40.016 16.8892C40.1895 16.816 40.347 16.7089 40.4794 16.5738L46.5871 10.4649C46.719 10.3303 46.8234 10.1706 46.8943 9.99505C46.9651 9.81951 47.0011 9.63154 47 9.44193C47.0011 9.25231 46.9651 9.06434 46.8943 8.8888C46.8234 8.71326 46.719 8.5536 46.5871 8.41897C46.3203 8.15062 45.9595 8 45.5834 8C45.2073 8 44.8464 8.15062 44.5797 8.41897L39.4685 13.5194Z" fill="#1E1E2F"/>
</g>
<path d="M10.9411 5.8302V7.15605C10.4046 7.15605 7.99108 7.83953 7.99108 10.0309C7.99108 11.9803 9.73273 12.511 10.9398 12.6851L10.9411 14.8881C10.0597 14.6365 9.89954 13.9583 9.77716 13.3978H7.84192C7.96169 15.5902 9.88727 16.6098 10.9411 16.7647V18.1135H12.7807V16.7851C14.2369 16.7076 15.9615 15.4502 15.9615 13.7267C15.9615 11.7528 14.2437 11.1924 12.7807 11.0418V9.02245C13.3564 9.06325 13.8055 9.63438 13.8542 10.2157H15.7703C15.7703 8.25753 13.9887 7.22745 12.7616 7.15605V5.8302H10.9411ZM10.9513 9.04157V10.7155C9.65449 10.6951 9.62928 9.27382 10.9513 9.04157ZM12.8024 13C14.4072 13.0408 14.5849 14.6422 12.7998 14.8983L12.8024 13Z" fill="#1E1E2F"/>
<path d="M12.8008 14.8981L12.8026 13L12.8008 14.8981Z" fill="white"/>
<circle cx="12" cy="12" r="10.75" stroke="#1E1E2F" stroke-width="2.5"/>
<defs>
<clipPath id="clip0_122_1911">
<rect x="28" y="24" width="24" height="24" rx="10" transform="rotate(-90 28 24)" fill="white"/>
</clipPath>
</defs>
</svg>
