<svg width="450" height="71" viewBox="0 0 450 71" fill="none" xmlns="http://www.w3.org/2000/svg">
<g clip-path="url(#clip0_252_2522)">
<rect width="450" height="71" rx="8" fill="#1E1E2F"/>
<path d="M200.24 30.125C200.134 29.1326 199.687 28.3598 198.899 27.8068C198.119 27.2538 197.104 26.9773 195.854 26.9773C194.975 26.9773 194.221 27.1098 193.592 27.375C192.964 27.6402 192.482 28 192.149 28.4545C191.816 28.9091 191.645 29.428 191.638 30.0114C191.638 30.4962 191.748 30.9167 191.967 31.2727C192.195 31.6288 192.501 31.9318 192.888 32.1818C193.274 32.4242 193.702 32.6288 194.172 32.7955C194.642 32.9621 195.115 33.1023 195.592 33.2159L197.774 33.7614C198.653 33.9659 199.498 34.2424 200.308 34.5909C201.126 34.9394 201.857 35.3788 202.501 35.9091C203.153 36.4394 203.668 37.0795 204.047 37.8295C204.426 38.5795 204.615 39.4583 204.615 40.4659C204.615 41.8295 204.267 43.0303 203.57 44.0682C202.873 45.0985 201.865 45.9053 200.547 46.4886C199.236 47.0644 197.649 47.3523 195.786 47.3523C193.975 47.3523 192.403 47.072 191.07 46.5114C189.744 45.9508 188.706 45.1326 187.956 44.0568C187.214 42.9811 186.812 41.6705 186.751 40.125H190.899C190.96 40.9356 191.21 41.6098 191.649 42.1477C192.089 42.6856 192.661 43.0871 193.365 43.3523C194.077 43.6174 194.873 43.75 195.751 43.75C196.668 43.75 197.471 43.6136 198.161 43.3409C198.857 43.0606 199.403 42.6742 199.797 42.1818C200.191 41.6818 200.392 41.0985 200.399 40.4318C200.392 39.8258 200.214 39.3258 199.865 38.9318C199.517 38.5303 199.028 38.197 198.399 37.9318C197.778 37.6591 197.051 37.4167 196.217 37.2045L193.57 36.5227C191.653 36.0303 190.138 35.2841 189.024 34.2841C187.918 33.2765 187.365 31.9394 187.365 30.2727C187.365 28.9015 187.736 27.7008 188.479 26.6705C189.229 25.6402 190.248 24.8409 191.536 24.2727C192.823 23.697 194.282 23.4091 195.911 23.4091C197.562 23.4091 199.009 23.697 200.251 24.2727C201.501 24.8409 202.482 25.6326 203.195 26.6477C203.907 27.6553 204.274 28.8144 204.297 30.125H200.24ZM215.919 47.3409C214.169 47.3409 212.658 46.9773 211.385 46.25C210.12 45.5152 209.146 44.4773 208.464 43.1364C207.783 41.7879 207.442 40.2008 207.442 38.375C207.442 36.5795 207.783 35.0038 208.464 33.6477C209.154 32.2841 210.116 31.2235 211.351 30.4659C212.586 29.7008 214.036 29.3182 215.703 29.3182C216.779 29.3182 217.794 29.4924 218.749 29.8409C219.711 30.1818 220.559 30.7121 221.294 31.4318C222.036 32.1515 222.62 33.0682 223.044 34.1818C223.468 35.2879 223.68 36.6061 223.68 38.1364V39.3977H209.374V36.625H219.737C219.73 35.8371 219.559 35.1364 219.226 34.5227C218.893 33.9015 218.427 33.4129 217.828 33.0568C217.237 32.7008 216.548 32.5227 215.76 32.5227C214.919 32.5227 214.18 32.7273 213.544 33.1364C212.908 33.5379 212.411 34.0682 212.055 34.7273C211.707 35.3788 211.529 36.0947 211.521 36.875V39.2955C211.521 40.3106 211.707 41.1818 212.078 41.9091C212.449 42.6288 212.968 43.1818 213.635 43.5682C214.302 43.947 215.082 44.1364 215.976 44.1364C216.574 44.1364 217.116 44.053 217.601 43.8864C218.086 43.7121 218.506 43.4583 218.862 43.125C219.218 42.7917 219.487 42.3788 219.669 41.8864L223.51 42.3182C223.268 43.3333 222.805 44.2197 222.124 44.9773C221.449 45.7273 220.586 46.3106 219.533 46.7273C218.48 47.1364 217.275 47.3409 215.919 47.3409ZM231.274 36.7727V47H227.161V29.5455H231.092V32.5114H231.297C231.698 31.5341 232.339 30.7576 233.217 30.1818C234.104 29.6061 235.198 29.3182 236.501 29.3182C237.706 29.3182 238.755 29.5758 239.649 30.0909C240.551 30.6061 241.248 31.3523 241.74 32.3295C242.24 33.3068 242.486 34.4924 242.479 35.8864V47H238.365V36.5227C238.365 35.3561 238.062 34.4432 237.456 33.7841C236.857 33.125 236.028 32.7955 234.967 32.7955C234.248 32.7955 233.607 32.9545 233.047 33.2727C232.494 33.5833 232.058 34.0341 231.74 34.625C231.429 35.2159 231.274 35.9318 231.274 36.7727ZM253.138 47.3068C251.767 47.3068 250.539 46.9545 249.456 46.25C248.373 45.5455 247.517 44.5227 246.888 43.1818C246.259 41.8409 245.945 40.2121 245.945 38.2955C245.945 36.3561 246.263 34.7197 246.899 33.3864C247.543 32.0455 248.411 31.0341 249.501 30.3523C250.592 29.6629 251.808 29.3182 253.149 29.3182C254.172 29.3182 255.013 29.4924 255.672 29.8409C256.331 30.1818 256.854 30.5947 257.24 31.0795C257.626 31.5568 257.926 32.0076 258.138 32.4318H258.308V23.7273H262.433V47H258.388V44.25H258.138C257.926 44.6742 257.619 45.125 257.217 45.6023C256.816 46.072 256.286 46.4735 255.626 46.8068C254.967 47.1402 254.138 47.3068 253.138 47.3068ZM254.286 43.9318C255.157 43.9318 255.899 43.697 256.513 43.2273C257.126 42.75 257.592 42.0871 257.911 41.2386C258.229 40.3902 258.388 39.4015 258.388 38.2727C258.388 37.1439 258.229 36.1629 257.911 35.3295C257.6 34.4962 257.138 33.8485 256.524 33.3864C255.918 32.9242 255.172 32.6932 254.286 32.6932C253.369 32.6932 252.604 32.9318 251.99 33.4091C251.376 33.8864 250.914 34.5455 250.604 35.3864C250.293 36.2273 250.138 37.1894 250.138 38.2727C250.138 39.3636 250.293 40.3371 250.604 41.1932C250.922 42.0417 251.388 42.7121 252.001 43.2045C252.623 43.6894 253.384 43.9318 254.286 43.9318Z" fill="white"/>
<rect width="100" height="74.2574" transform="translate(-1.83008 -19.4585) rotate(39.5129)" fill="white"/>
<path d="M5.15894 71.1577H54.8899" stroke="#1E1E2F" stroke-width="2"/>
<rect width="100" height="100" transform="translate(-30.3749 -43) rotate(39.5129)" fill="#F58220"/>
</g>
<defs>
<clipPath id="clip0_252_2522">
<rect width="450" height="71" rx="8" fill="white"/>
</clipPath>
</defs>
</svg>
