<svg width="450" height="71" viewBox="0 0 450 71" fill="none" xmlns="http://www.w3.org/2000/svg">
<g clip-path="url(#clip0_148_4572)">
<rect width="450" height="71" rx="8" fill="#1E1E2F"/>
<path d="M195.45 47H187.916V23.7273H195.689C197.969 23.7273 199.928 24.1932 201.564 25.125C203.2 26.0492 204.454 27.3788 205.325 29.1136C206.204 30.8409 206.643 32.9129 206.643 35.3295C206.643 37.7538 206.2 39.8371 205.314 41.5795C204.435 43.322 203.162 44.6629 201.496 45.6023C199.829 46.5341 197.814 47 195.45 47ZM191.428 43.9318H195.257C197.03 43.9318 198.503 43.5985 199.678 42.9318C200.852 42.2576 201.731 41.2841 202.314 40.0114C202.897 38.7311 203.189 37.1705 203.189 35.3295C203.189 33.5038 202.897 31.9545 202.314 30.6818C201.738 29.4091 200.878 28.4432 199.734 27.7841C198.59 27.125 197.17 26.7955 195.473 26.7955H191.428V43.9318ZM218.089 47.3523C216.453 47.3523 215.025 46.9773 213.805 46.2273C212.586 45.4773 211.639 44.428 210.964 43.0795C210.29 41.7311 209.953 40.1553 209.953 38.3523C209.953 36.5417 210.29 34.9583 210.964 33.6023C211.639 32.2462 212.586 31.1932 213.805 30.4432C215.025 29.6932 216.453 29.3182 218.089 29.3182C219.726 29.3182 221.154 29.6932 222.374 30.4432C223.593 31.1932 224.54 32.2462 225.214 33.6023C225.889 34.9583 226.226 36.5417 226.226 38.3523C226.226 40.1553 225.889 41.7311 225.214 43.0795C224.54 44.428 223.593 45.4773 222.374 46.2273C221.154 46.9773 219.726 47.3523 218.089 47.3523ZM218.101 44.5C219.161 44.5 220.04 44.2197 220.737 43.6591C221.434 43.0985 221.949 42.3523 222.283 41.4205C222.624 40.4886 222.794 39.4621 222.794 38.3409C222.794 37.2273 222.624 36.2045 222.283 35.2727C221.949 34.3333 221.434 33.5795 220.737 33.0114C220.04 32.4432 219.161 32.1591 218.101 32.1591C217.033 32.1591 216.146 32.4432 215.442 33.0114C214.745 33.5795 214.226 34.3333 213.885 35.2727C213.552 36.2045 213.385 37.2273 213.385 38.3409C213.385 39.4621 213.552 40.4886 213.885 41.4205C214.226 42.3523 214.745 43.0985 215.442 43.6591C216.146 44.2197 217.033 44.5 218.101 44.5ZM237.541 47.3523C235.821 47.3523 234.34 46.9848 233.098 46.25C231.863 45.5076 230.909 44.4659 230.234 43.125C229.568 41.7765 229.234 40.197 229.234 38.3864C229.234 36.5985 229.568 35.0227 230.234 33.6591C230.909 32.2955 231.848 31.2311 233.053 30.4659C234.265 29.7008 235.681 29.3182 237.303 29.3182C238.287 29.3182 239.242 29.4811 240.166 29.8068C241.09 30.1326 241.92 30.6439 242.655 31.3409C243.39 32.0379 243.969 32.9432 244.393 34.0568C244.818 35.1629 245.03 36.5076 245.03 38.0909V39.2955H231.155V36.75H241.7C241.7 35.8561 241.518 35.0644 241.155 34.375C240.791 33.678 240.28 33.1288 239.621 32.7273C238.969 32.3258 238.204 32.125 237.325 32.125C236.371 32.125 235.537 32.3598 234.825 32.8295C234.121 33.2917 233.575 33.8977 233.189 34.6477C232.81 35.3902 232.621 36.197 232.621 37.0682V39.0568C232.621 40.2235 232.825 41.2159 233.234 42.0341C233.651 42.8523 234.231 43.4773 234.973 43.9091C235.715 44.3333 236.583 44.5455 237.575 44.5455C238.219 44.5455 238.806 44.4545 239.337 44.2727C239.867 44.0833 240.325 43.803 240.712 43.4318C241.098 43.0606 241.393 42.6023 241.598 42.0568L244.814 42.6364C244.556 43.5833 244.094 44.4129 243.428 45.125C242.768 45.8295 241.939 46.3788 240.939 46.7727C239.946 47.1591 238.814 47.3523 237.541 47.3523ZM252.197 36.6364V47H248.8V29.5455H252.061V32.3864H252.277C252.679 31.4621 253.307 30.7197 254.163 30.1591C255.027 29.5985 256.114 29.3182 257.425 29.3182C258.614 29.3182 259.656 29.5682 260.55 30.0682C261.444 30.5606 262.137 31.2955 262.629 32.2727C263.122 33.25 263.368 34.4583 263.368 35.8977V47H259.97V36.3068C259.97 35.0417 259.641 34.053 258.982 33.3409C258.322 32.6212 257.417 32.2614 256.266 32.2614C255.478 32.2614 254.777 32.4318 254.163 32.7727C253.557 33.1136 253.076 33.6136 252.72 34.2727C252.372 34.9242 252.197 35.7121 252.197 36.6364Z" fill="white"/>
<rect width="100" height="74.2574" transform="translate(-1.83002 -19.4587) rotate(39.5129)" fill="white"/>
<path d="M5.159 71.1572H54.89" stroke="#1E1E2F" stroke-width="2"/>
<rect width="100" height="100" transform="translate(-30.3748 -43) rotate(39.5129)" fill="#F58220"/>
</g>
<defs>
<clipPath id="clip0_148_4572">
<rect width="450" height="71" rx="8" fill="white"/>
</clipPath>
</defs>
</svg>
