<svg width="450" height="71" viewBox="0 0 450 71" fill="none" xmlns="http://www.w3.org/2000/svg">
<g clip-path="url(#clip0_252_2809)">
<rect width="450" height="71" rx="10" fill="#1E1E2F"/>
<path d="M185.131 30.125C185.025 29.1326 184.578 28.3598 183.79 27.8068C183.009 27.2538 181.994 26.9773 180.744 26.9773C179.866 26.9773 179.112 27.1098 178.483 27.375C177.854 27.6402 177.373 28 177.04 28.4545C176.706 28.9091 176.536 29.428 176.528 30.0114C176.528 30.4962 176.638 30.9167 176.858 31.2727C177.085 31.6288 177.392 31.9318 177.778 32.1818C178.165 32.4242 178.593 32.6288 179.062 32.7955C179.532 32.9621 180.006 33.1023 180.483 33.2159L182.665 33.7614C183.544 33.9659 184.388 34.2424 185.199 34.5909C186.017 34.9394 186.748 35.3788 187.392 35.9091C188.044 36.4394 188.559 37.0795 188.938 37.8295C189.316 38.5795 189.506 39.4583 189.506 40.4659C189.506 41.8295 189.157 43.0303 188.46 44.0682C187.763 45.0985 186.756 45.9053 185.438 46.4886C184.127 47.0644 182.54 47.3523 180.676 47.3523C178.866 47.3523 177.294 47.072 175.96 46.5114C174.634 45.9508 173.597 45.1326 172.847 44.0568C172.104 42.9811 171.703 41.6705 171.642 40.125H175.79C175.85 40.9356 176.1 41.6098 176.54 42.1477C176.979 42.6856 177.551 43.0871 178.256 43.3523C178.968 43.6174 179.763 43.75 180.642 43.75C181.559 43.75 182.362 43.6136 183.051 43.3409C183.748 43.0606 184.294 42.6742 184.688 42.1818C185.081 41.6818 185.282 41.0985 185.29 40.4318C185.282 39.8258 185.104 39.3258 184.756 38.9318C184.407 38.5303 183.919 38.197 183.29 37.9318C182.669 37.6591 181.941 37.4167 181.108 37.2045L178.46 36.5227C176.544 36.0303 175.028 35.2841 173.915 34.2841C172.809 33.2765 172.256 31.9394 172.256 30.2727C172.256 28.9015 172.627 27.7008 173.369 26.6705C174.119 25.6402 175.138 24.8409 176.426 24.2727C177.714 23.697 179.172 23.4091 180.801 23.4091C182.453 23.4091 183.9 23.697 185.142 24.2727C186.392 24.8409 187.373 25.6326 188.085 26.6477C188.797 27.6553 189.165 28.8144 189.188 30.125H185.131ZM204.207 39.6591V29.5455H208.321V47H204.332V43.8977H204.151C203.757 44.875 203.109 45.6742 202.207 46.2955C201.313 46.9167 200.211 47.2273 198.901 47.2273C197.757 47.2273 196.745 46.9735 195.866 46.4659C194.995 45.9508 194.313 45.2045 193.821 44.2273C193.329 43.2424 193.082 42.053 193.082 40.6591V29.5455H197.196V40.0227C197.196 41.1288 197.499 42.0076 198.105 42.6591C198.711 43.3106 199.507 43.6364 200.491 43.6364C201.098 43.6364 201.685 43.4886 202.253 43.1932C202.821 42.8977 203.287 42.4583 203.651 41.875C204.022 41.2841 204.207 40.5455 204.207 39.6591ZM212.733 47V23.7273H216.847V32.4318H217.017C217.229 32.0076 217.528 31.5568 217.915 31.0795C218.301 30.5947 218.824 30.1818 219.483 29.8409C220.142 29.4924 220.983 29.3182 222.006 29.3182C223.354 29.3182 224.57 29.6629 225.653 30.3523C226.744 31.0341 227.608 32.0455 228.244 33.3864C228.888 34.7197 229.21 36.3561 229.21 38.2955C229.21 40.2121 228.896 41.8409 228.267 43.1818C227.638 44.5227 226.782 45.5455 225.699 46.25C224.616 46.9545 223.388 47.3068 222.017 47.3068C221.017 47.3068 220.188 47.1402 219.528 46.8068C218.869 46.4735 218.339 46.072 217.938 45.6023C217.544 45.125 217.237 44.6742 217.017 44.25H216.778V47H212.733ZM216.767 38.2727C216.767 39.4015 216.926 40.3902 217.244 41.2386C217.57 42.0871 218.036 42.75 218.642 43.2273C219.256 43.697 219.998 43.9318 220.869 43.9318C221.778 43.9318 222.54 43.6894 223.153 43.2045C223.767 42.7121 224.229 42.0417 224.54 41.1932C224.858 40.3371 225.017 39.3636 225.017 38.2727C225.017 37.1894 224.862 36.2273 224.551 35.3864C224.241 34.5455 223.778 33.8864 223.165 33.4091C222.551 32.9318 221.786 32.6932 220.869 32.6932C219.991 32.6932 219.244 32.9242 218.631 33.3864C218.017 33.8485 217.551 34.4962 217.233 35.3295C216.922 36.1629 216.767 37.1439 216.767 38.2727ZM232.707 47V29.5455H236.639V32.5114H236.844C237.207 31.5114 237.81 30.7311 238.651 30.1705C239.491 29.6023 240.495 29.3182 241.662 29.3182C242.844 29.3182 243.84 29.6061 244.651 30.1818C245.469 30.75 246.045 31.5265 246.378 32.5114H246.56C246.946 31.5417 247.598 30.7689 248.514 30.1932C249.438 29.6098 250.533 29.3182 251.798 29.3182C253.404 29.3182 254.715 29.8258 255.73 30.8409C256.745 31.8561 257.253 33.3371 257.253 35.2841V47H253.128V35.9205C253.128 34.8371 252.84 34.0455 252.264 33.5455C251.688 33.0379 250.984 32.7841 250.151 32.7841C249.158 32.7841 248.382 33.0947 247.821 33.7159C247.268 34.3295 246.991 35.1288 246.991 36.1136V47H242.957V35.75C242.957 34.8485 242.685 34.1288 242.139 33.5909C241.601 33.053 240.897 32.7841 240.026 32.7841C239.435 32.7841 238.897 32.9356 238.412 33.2386C237.927 33.5341 237.541 33.9545 237.253 34.5C236.965 35.0379 236.821 35.6667 236.821 36.3864V47H232.707ZM261.426 47V29.5455H265.54V47H261.426ZM263.494 27.0682C262.843 27.0682 262.282 26.8523 261.812 26.4205C261.343 25.9811 261.108 25.4545 261.108 24.8409C261.108 24.2197 261.343 23.6932 261.812 23.2614C262.282 22.822 262.843 22.6023 263.494 22.6023C264.153 22.6023 264.714 22.822 265.176 23.2614C265.646 23.6932 265.881 24.2197 265.881 24.8409C265.881 25.4545 265.646 25.9811 265.176 26.4205C264.714 26.8523 264.153 27.0682 263.494 27.0682ZM278.486 29.5455V32.7273H268.452V29.5455H278.486ZM270.929 25.3636H275.043V41.75C275.043 42.303 275.126 42.7273 275.293 43.0227C275.467 43.3106 275.694 43.5076 275.974 43.6136C276.255 43.7197 276.565 43.7727 276.906 43.7727C277.164 43.7727 277.399 43.7538 277.611 43.7159C277.83 43.678 277.997 43.6439 278.111 43.6136L278.804 46.8295C278.584 46.9053 278.27 46.9886 277.861 47.0795C277.459 47.1705 276.967 47.2235 276.384 47.2386C275.353 47.2689 274.425 47.1136 273.599 46.7727C272.774 46.4242 272.118 45.8864 271.634 45.1591C271.156 44.4318 270.921 43.5227 270.929 42.4318V25.3636Z" fill="white"/>
<rect width="100" height="74.2574" transform="translate(-1.83008 -19.4585) rotate(39.5129)" fill="white"/>
<path d="M5.15894 71.1577H54.8899" stroke="#1E1E2F" stroke-width="2"/>
<rect width="100" height="100" transform="translate(-30.3749 -43) rotate(39.5129)" fill="#F58220"/>
</g>
<defs>
<clipPath id="clip0_252_2809">
<rect width="450" height="71" rx="10" fill="white"/>
</clipPath>
</defs>
</svg>
