<svg width="32" height="32" viewBox="0 0 32 32" fill="none" xmlns="http://www.w3.org/2000/svg">
<g clip-path="url(#clip0_122_1974)">
<path d="M16.25 16.5C18.3211 16.5 20 14.8211 20 12.75C20 10.6789 18.3211 9 16.25 9C14.1789 9 12.5 10.6789 12.5 12.75C12.5 14.8211 14.1789 16.5 16.25 16.5Z" stroke="white" stroke-width="1.5" stroke-linecap="round" stroke-linejoin="round"/>
<path d="M21.5 24C21.5 22.6076 20.9469 21.2723 19.9623 20.2877C18.9777 19.3031 17.6424 18.75 16.25 18.75C14.8576 18.75 13.5223 19.3031 12.5377 20.2877C11.5531 21.2723 11 22.6076 11 24H21.5Z" stroke="white" stroke-width="1.5" stroke-linecap="round" stroke-linejoin="round"/>
<path d="M22.25 13.5C22.8892 13.5 23.5178 13.3366 24.0761 13.0253C24.6344 12.7141 25.1039 12.2652 25.4399 11.7215C25.776 11.1777 25.9675 10.5571 25.9962 9.91856C26.0249 9.27999 25.89 8.64468 25.6041 8.07295C25.3182 7.50122 24.891 7.01205 24.3629 6.6519C23.8348 6.29174 23.2234 6.07256 22.5868 6.01515C21.9501 5.95775 21.3094 6.06403 20.7254 6.32391C20.1414 6.58379 19.6335 6.98863 19.25 7.5" stroke="white" stroke-width="1.5" stroke-linecap="round" stroke-linejoin="round"/>
<path d="M23 21H27.5C27.5 19.6076 26.9469 18.2723 25.9623 17.2877C24.9777 16.3031 23.6424 15.75 22.25 15.75" stroke="white" stroke-width="1.5" stroke-linecap="round" stroke-linejoin="round"/>
<path d="M13.25 7.5C12.8665 6.98863 12.3586 6.58379 11.7746 6.32391C11.1906 6.06403 10.5499 5.95775 9.91323 6.01515C9.2766 6.07256 8.66521 6.29174 8.13712 6.6519C7.60903 7.01205 7.18176 7.50122 6.8959 8.07295C6.61003 8.64468 6.47506 9.27999 6.50379 9.91856C6.53252 10.5571 6.72401 11.1777 7.06006 11.7215C7.39611 12.2652 7.86558 12.7141 8.42388 13.0253C8.98219 13.3366 9.61079 13.5 10.25 13.5" stroke="white" stroke-width="1.5" stroke-linecap="round" stroke-linejoin="round"/>
<path d="M10.25 15.75C8.85761 15.75 7.52226 16.3031 6.53769 17.2877C5.55312 18.2723 5 19.6076 5 21H9.5" stroke="white" stroke-width="1.5" stroke-linecap="round" stroke-linejoin="round"/>
</g>
<defs>
<clipPath id="clip0_122_1974">
<rect width="24" height="24" fill="white" transform="translate(4 3)"/>
</clipPath>
</defs>
</svg>
