<svg width="28" height="24" viewBox="0 0 28 24" fill="none" xmlns="http://www.w3.org/2000/svg">
<path d="M27.5562 4.53751L21.0125 0.143756C20.725 -0.0499939 20.3625 -0.0499939 20.0688 0.143756L14 4.21876L7.93125 0.143756C7.64375 -0.0499939 7.275 -0.0499939 6.9875 0.143756L0.44375 4.53751C0.16875 4.71876 0 5.05626 0 5.41251V22.975C0 23.3438 0.175 23.6813 0.4625 23.8688C0.75 24.05 1.10625 24.0438 1.3875 23.8563L7.45625 19.7813L13.525 23.8563C13.8187 24.05 14.175 24.05 14.4688 23.8563L20.5438 19.7813L26.6125 23.8563C26.7562 23.95 26.9187 24.0063 27.0812 24.0063C27.2375 24.0063 27.3937 23.9625 27.5312 23.875C27.8188 23.6938 27.9937 23.35 27.9937 22.9813V5.41876C28 5.05626 27.8312 4.71876 27.5562 4.53751ZM6.4375 18.075L2 21.1625V6.05626L6.4375 2.96876V18.075ZM8.4375 18.05V10.4C8.5 10.4438 8.5625 10.4813 8.61875 10.525L9.2 9.71251C8.9625 9.54376 8.7 9.38126 8.4375 9.24376V2.93751L13 6.00001V12.7938C12.6562 12.675 12.3188 12.5188 11.975 12.3L11.4438 13.15C11.8688 13.4188 12.2937 13.6188 12.7375 13.7625L13 12.9625V21.1063L8.4375 18.05ZM15 21.1063V14.0188C15.0125 14.0188 15.025 14.0188 15.0312 14.0188C15.2125 14.0063 15.3938 13.9875 15.5625 13.9625L15.4062 12.975C15.275 12.9938 15.1375 13.0125 14.9937 13.0188V6.00001L19.5562 2.93751V10.3875L19.225 10.0875C19.0375 10.2938 18.8625 10.5 18.6875 10.6938C18.575 10.825 18.4625 10.95 18.3563 11.075L19.1063 11.7375C19.2188 11.6125 19.3313 11.4813 19.4438 11.35C19.4813 11.3063 19.5187 11.2625 19.5625 11.2188V18.0438L15 21.1063ZM26 21.1063L21.5625 18.0813V9.50626C21.7875 9.40626 22.025 9.33126 22.2563 9.28126L22.0562 8.30001C21.8875 8.33126 21.725 8.38126 21.5562 8.43126V2.96251L25.9937 5.99376V21.1063H26Z" fill="white"/>
</svg>
