<svg width="24" height="24" viewBox="0 0 24 24" fill="none" xmlns="http://www.w3.org/2000/svg">
<g clip-path="url(#clip0_122_2090)">
<path d="M38 28.5V13.5C38 11.0294 35.9706 9 33.5 9H12.5C10.0294 9 8 11.0294 8 13.5V28.5C8 30.9706 10.0294 33 12.5 33H33.5C35.9706 33 38 30.9706 38 28.5Z" fill="#1E1E2F"/>
<path d="M22.3121 20.8762L21.6613 19.7048C21.401 19.1842 21.2708 18.5334 21.2708 17.8826L22.0518 11.7652C22.4422 8.51128 21.0105 5.25735 18.1471 3.43515L17.7566 3.17483C17.4963 3.04468 17.3661 2.91452 17.1058 2.78436C17.236 2.65421 17.2359 2.39389 17.2359 2.13358C17.2359 2.00342 17.2359 1.87326 17.2359 1.87326C17.1058 1.35263 16.8455 1.09232 16.5852 0.701847C16.1947 0.311376 15.8042 0.181218 15.1534 0.0510612C14.6328 -0.0790961 14.1122 0.0510621 13.7217 0.311377C13.3312 0.571691 13.0709 0.832004 12.8106 1.22248C12.8106 1.35263 12.6804 1.35263 12.6804 1.48279C12.5503 1.61295 12.5503 1.87326 12.6804 2.13358C12.4201 2.13358 12.1598 2.26373 11.8995 2.39389L11.509 2.52405C10.9884 2.65421 10.5979 2.91452 10.2075 3.17483C9.55667 2.78436 8.77573 2.65421 7.99478 2.65421C5.39164 2.65421 3.30912 4.73672 3.30912 7.33987C3.30912 8.64144 3.82975 9.81286 4.74085 10.5938C5.00117 10.8541 5.39164 11.1144 5.65195 11.3747L5.13132 16.0604C5.13132 16.7112 4.74085 17.2318 4.35038 17.6223L3.43928 18.5334C3.04881 18.9239 2.91865 19.5747 3.04881 20.0953C3.17897 20.6159 3.69959 21.0064 4.22022 21.0064L9.29636 21.6572C9.29636 21.7873 9.29636 21.9175 9.29636 22.0476C9.29636 22.0476 9.29635 22.1778 9.42651 22.1778C9.68683 22.9587 10.4678 23.8698 12.29 24C12.5503 24 12.6804 24 12.9408 24C14.3725 24 15.1534 23.3492 15.5439 22.8286L15.6741 22.6984C15.6741 22.5683 15.8042 22.4381 15.8042 22.308L20.8804 22.9587H21.0105C21.5311 22.9587 21.9216 22.6984 22.3121 22.308C22.7026 21.9175 22.7026 21.3969 22.3121 20.8762ZM13.5916 2.13358C13.5916 2.00342 13.5915 2.00342 13.7217 1.87326C13.8519 1.61295 13.982 1.35263 14.2423 1.22248C14.3725 1.09232 14.763 0.962161 15.1534 1.09232C15.5439 1.09232 15.8042 1.35263 15.9344 1.48279C16.0645 1.61295 16.1947 1.87326 16.3249 2.26374C16.3249 2.39389 16.3249 2.39389 16.3249 2.52405H15.9344C15.2836 2.39389 14.6328 2.26374 14.1122 2.26374L13.5916 2.13358ZM7.86463 5.25735C9.03604 5.25735 9.94714 6.03829 10.0773 7.07955C10.0773 7.20971 10.0773 7.20971 10.0773 7.33987C10.0773 8.12081 9.55667 8.90176 8.90588 9.29223C8.64557 9.42239 8.2551 9.55254 7.99478 9.55254C7.21384 9.55254 6.4329 9.03191 6.17258 8.38113C6.04242 8.12081 5.91227 7.73034 5.91227 7.33987C5.91227 6.29861 6.82337 5.38751 7.86463 5.25735ZM19.0582 11.5049L18.4074 17.6223C18.2772 18.4032 18.4074 19.1842 18.5375 19.835L7.344 18.5334C7.73447 17.8826 7.99478 17.1017 7.99478 16.4509L8.51542 12.0255C9.55667 11.8954 10.5979 11.3747 11.2487 10.724C12.0297 9.94301 12.6804 8.7716 12.6804 7.47003C12.6804 6.81924 12.5503 6.16845 12.29 5.64782C12.4201 5.64782 12.4201 5.51767 12.5503 5.51767L12.9408 5.38751C13.982 4.99704 15.2836 5.12719 16.1947 5.77798L16.5852 6.0383C18.4074 7.20971 19.3185 9.29223 19.0582 11.5049Z" fill="white"/>
</g>
<defs>
<clipPath id="clip0_122_2090">
<rect width="24" height="24" fill="white"/>
</clipPath>
</defs>
</svg>
